<?xml version="1.0" encoding="utf-8"?><!-- Generator: Adobe Illustrator 21.1.0, SVG Export Plug-In . SVG Version: 6.00 Build 0)  --><svg xmlns="http://www.w3.org/2000/svg" xmlns:xlink="http://www.w3.org/1999/xlink" viewBox="0 0 128 128" width="100px" height="100px"><style type="text/css">.st0{fill:#FFFFFF;}</style><g><path d="M100.9,127h3.3c6,0,11.7-2.4,15.6-6.9c4.2-4.8,5.8-11.3,4.4-17.5L101.9,3.3c-0.3-1.5-1.7-2.5-3.3-2.3c-0.7,0.1-1.3,0.4-1.7,0.9c-0.8,0.8-2.6,2.6-4,4c-2.9,2.9-6.7,4.8-10.8,5c-4.7,0.3-9.2-1.4-12.6-4.7l-4.3-4.3c-0.5-0.5-1.1-0.8-1.7-0.9c-1.6-0.2-3,0.9-3.3,2.3l-22.3,99.3c-0.6,2.7-0.6,5.5-0.1,8.1c0.3,1.8,0.9,3.6,1.8,5.2c0.7,1.4,0.3,3.1-0.9,3.9c-0.5,0.4-1.1,0.5-1.7,0.5c-1.1,0-2.1-0.6-2.7-1.6c-1.3-2.5-2.1-5.2-2.5-8c-0.1-0.8-0.7-1.5-1.5-1.7l-13.9-3.2c-3.2-0.7-6.5,0-9.1,2.1c-2.7,2.2-4.2,5.5-4,9c0.3,5.7,5.3,10.1,11.1,10.1h75.7c0.1,0,0.3,0,0.4,0c0.1,0,0.2,0,0.3,0c0.1,0,0.1,0,0.2,0c1.6-0.4,2.8-2.1,2.2-3.9c-0.4-1.2-1.6-2-2.9-2c-1.6,0-2.9-1.4-2.9-3c0-0.1,0-0.2,0-0.4L86.9,99c0-1.7,1.3-3,3-3c1.6,0,3,1.3,3,3l0.1,16.5c3.5,1.2,6,4.6,6,8.5c0,0.3,0,0.5,0,0.8C98.9,126,99.7,127,100.9,127z M68,34c0-1.7,1.3-3,3-3s3,1.3,3,3s-1.3,3-3,3S68,35.7,68,34z M72,120.4C72,120.4,72,120.4,72,120.4c-1.7,0-3-1.3-3-3L68.9,99c0-1.7,1.3-3,3-3c0,0,0,0,0,0c1.7,0,3,1.3,3,3l0.1,18.4C75,119.1,73.7,120.4,72,120.4z M91,37c-1.7,0-3-1.3-3-3s1.3-3,3-3s3,1.3,3,3S92.7,37,91,37z"/></g></svg>